<?xml version="1.0" encoding="UTF-8" standalone="no"?>
<!-- Created with Inkscape (http://www.inkscape.org/) -->
<svg
   xmlns:svg="http://www.w3.org/2000/svg"
   xmlns="http://www.w3.org/2000/svg"
   version="1.0"
   width="50"
   height="50"
   id="svg2">
  <defs
     id="defs4" />
  <g
     id="layer1">
    <path
       d="M 22.257542,0.20212372 C 16.81832,0.78408342 11.308283,1.2297976 5.8364886,0.85800472 C 8.288312,3.1108889 7.7228688,6.5486386 7.8014007,9.4811823 C 7.7804785,20.081758 7.8435835,30.683954 7.769236,41.283501 C 8.1567712,43.052331 6.0464472,45.612853 5.7950672,46.113791 C 10.019401,46.113791 14.243734,46.11379 18.468067,46.11379 C 16.208869,44.623189 16.398891,41.698752 16.362803,39.38296 C 16.362803,34.280703 16.362803,29.178447 16.362803,24.07619 C 19.68444,28.492455 23.006078,32.90872 26.327714,37.324987 C 23.930391,38.585084 21.881866,40.453724 19.169822,41.129095 C 19.965143,42.22223 20.760465,43.315366 21.555786,44.408501 C 23.509257,42.462724 26.012261,41.12842 28.292627,39.554979 C 30.823933,43.230067 34.991171,46.438243 39.89979,46.296207 C 41.449564,46.260012 45.015064,45.810991 44.999952,45.001697 C 40.511565,42.887215 37.044367,39.225718 34.748768,35.094991 C 36.909934,33.424926 38.98801,31.539486 41.579897,30.465569 C 42.515554,30.301499 41.017675,29.183361 40.824124,28.576585 C 40.083717,26.597991 39.434846,28.770934 38.175643,29.366976 C 36.440581,30.404203 34.366633,32.22472 32.644101,32.53661 C 30.304722,29.235491 27.965341,25.934371 25.625962,22.633252 C 30.266358,21.625066 35.427309,19.572223 37.30888,15.14089 C 38.604813,11.958187 38.054681,8.3111242 36.69288,5.2501674 C 33.828786,1.5362347 28.815642,-0.32876924 23.99561,0.047645024 C 23.414363,0.077609024 22.834536,0.13022992 22.257541,0.20212372 L 22.257542,0.20212372 z M 17.766312,3.7438808 C 21.323469,3.3274897 25.75238,3.6416962 27.82304,6.8070781 C 30.090239,10.536763 29.232245,15.491331 26.383622,18.73885 C 23.939107,21.383794 19.875354,21.859048 16.362803,21.452666 C 16.362803,15.637189 16.362803,9.8217113 16.362803,4.0062335 C 16.83064,3.9187825 17.298477,3.8313317 17.766312,3.7438808 z "
       style="fill:#000000;fill-opacity:1;stroke:none;stroke-width:6px;stroke-linecap:butt;stroke-linejoin:miter;stroke-opacity:1"
       id="text2160" />
  </g>
</svg>
